<mxfile host="Electron" modified="2023-11-04T10:54:05.295Z" agent="Mozilla/5.0 (Windows NT 10.0; Win64; x64) AppleWebKit/537.36 (KHTML, like Gecko) draw.io/22.0.0 Chrome/114.0.5735.289 Electron/25.8.3 Safari/537.36" etag="4Rg92WlZ0rfuCAKPtLpz" version="22.0.0" type="device">
  <diagram name="Page-1" id="P9qCp_B_wyDAAitGqu8o">
    <mxGraphModel dx="423" dy="247" grid="1" gridSize="10" guides="1" tooltips="1" connect="1" arrows="1" fold="1" page="1" pageScale="1" pageWidth="850" pageHeight="1100" math="0" shadow="0">
      <root>
        <mxCell id="0" />
        <mxCell id="1" parent="0" />
        <mxCell id="dh6VsPdFNRWcTSXPeY6v-28" value="" style="endArrow=block;html=1;rounded=0;strokeWidth=5;endFill=1;strokeColor=#FF8000;" edge="1" parent="1">
          <mxGeometry width="50" height="50" relative="1" as="geometry">
            <mxPoint x="160" y="480" as="sourcePoint" />
            <mxPoint x="610" y="480" as="targetPoint" />
          </mxGeometry>
        </mxCell>
        <mxCell id="dh6VsPdFNRWcTSXPeY6v-29" value="" style="endArrow=block;html=1;rounded=0;strokeWidth=5;endFill=1;strokeColor=#FF8000;" edge="1" parent="1">
          <mxGeometry width="50" height="50" relative="1" as="geometry">
            <mxPoint x="640" y="600" as="sourcePoint" />
            <mxPoint x="1040" y="600" as="targetPoint" />
          </mxGeometry>
        </mxCell>
        <mxCell id="dh6VsPdFNRWcTSXPeY6v-31" value="submit an order" style="text;html=1;align=center;verticalAlign=middle;resizable=0;points=[];autosize=1;strokeColor=none;fillColor=none;fontSize=24;fontStyle=1;fontColor=#00CC00;" vertex="1" parent="1">
          <mxGeometry x="210" y="423" width="200" height="40" as="geometry" />
        </mxCell>
        <mxCell id="dh6VsPdFNRWcTSXPeY6v-36" value="Database" style="text;html=1;align=center;verticalAlign=middle;resizable=0;points=[];autosize=1;strokeColor=none;fillColor=none;fontSize=20;fontStyle=1;fontColor=#FFFFFF;" vertex="1" parent="1">
          <mxGeometry x="1025" y="304" width="110" height="40" as="geometry" />
        </mxCell>
        <mxCell id="dh6VsPdFNRWcTSXPeY6v-38" value="retrieve info from database" style="text;html=1;align=center;verticalAlign=middle;resizable=0;points=[];autosize=1;strokeColor=none;fillColor=none;fontSize=24;fontStyle=1;fontColor=#00CC00;" vertex="1" parent="1">
          <mxGeometry x="685" y="520" width="330" height="40" as="geometry" />
        </mxCell>
        <mxCell id="dh6VsPdFNRWcTSXPeY6v-40" value="execute a&amp;nbsp;bussiness case" style="text;html=1;align=center;verticalAlign=middle;resizable=0;points=[];autosize=1;strokeColor=none;fillColor=none;fontSize=24;fontStyle=1;fontColor=#00CC00;" vertex="1" parent="1">
          <mxGeometry x="725" y="935" width="320" height="40" as="geometry" />
        </mxCell>
        <mxCell id="dh6VsPdFNRWcTSXPeY6v-41" value="" style="endArrow=block;html=1;rounded=0;strokeWidth=5;endFill=1;strokeColor=#FF8000;" edge="1" parent="1">
          <mxGeometry width="50" height="50" relative="1" as="geometry">
            <mxPoint x="641" y="997" as="sourcePoint" />
            <mxPoint x="1531" y="997" as="targetPoint" />
          </mxGeometry>
        </mxCell>
        <mxCell id="dh6VsPdFNRWcTSXPeY6v-43" value="" style="endArrow=none;html=1;rounded=0;entryX=0;entryY=0.5;entryDx=0;entryDy=0;strokeWidth=3;strokeColor=#00CC00;" edge="1" parent="1">
          <mxGeometry width="50" height="50" relative="1" as="geometry">
            <mxPoint x="620" y="1480" as="sourcePoint" />
            <mxPoint x="624" y="395" as="targetPoint" />
          </mxGeometry>
        </mxCell>
        <mxCell id="dh6VsPdFNRWcTSXPeY6v-44" value="" style="endArrow=none;html=1;rounded=0;entryX=0;entryY=0.5;entryDx=0;entryDy=0;strokeWidth=3;strokeColor=#00CC00;" edge="1" parent="1">
          <mxGeometry width="50" height="50" relative="1" as="geometry">
            <mxPoint x="1079" y="1480" as="sourcePoint" />
            <mxPoint x="1083" y="395" as="targetPoint" />
          </mxGeometry>
        </mxCell>
        <mxCell id="dh6VsPdFNRWcTSXPeY6v-45" value="" style="endArrow=none;html=1;rounded=0;entryX=0;entryY=0.5;entryDx=0;entryDy=0;strokeWidth=3;strokeColor=#00CC00;" edge="1" parent="1">
          <mxGeometry width="50" height="50" relative="1" as="geometry">
            <mxPoint x="1537" y="1480" as="sourcePoint" />
            <mxPoint x="1541" y="395" as="targetPoint" />
          </mxGeometry>
        </mxCell>
        <mxCell id="dh6VsPdFNRWcTSXPeY6v-46" value="" style="endArrow=none;html=1;rounded=0;entryX=0;entryY=0.5;entryDx=0;entryDy=0;strokeWidth=3;strokeColor=#00CC00;" edge="1" parent="1">
          <mxGeometry width="50" height="50" relative="1" as="geometry">
            <mxPoint x="135" y="1480" as="sourcePoint" />
            <mxPoint x="139" y="395" as="targetPoint" />
          </mxGeometry>
        </mxCell>
        <mxCell id="dh6VsPdFNRWcTSXPeY6v-47" value="" style="endArrow=block;html=1;rounded=0;strokeWidth=5;endFill=1;strokeColor=#FF8000;" edge="1" parent="1">
          <mxGeometry width="50" height="50" relative="1" as="geometry">
            <mxPoint x="1530" y="1107" as="sourcePoint" />
            <mxPoint x="640" y="1107" as="targetPoint" />
          </mxGeometry>
        </mxCell>
        <mxCell id="dh6VsPdFNRWcTSXPeY6v-48" value="Respond back" style="text;html=1;align=center;verticalAlign=middle;resizable=0;points=[];autosize=1;strokeColor=none;fillColor=none;fontSize=24;fontStyle=1;fontColor=#00CC00;" vertex="1" parent="1">
          <mxGeometry x="1190" y="1055" width="190" height="40" as="geometry" />
        </mxCell>
        <mxCell id="dh6VsPdFNRWcTSXPeY6v-49" value="" style="endArrow=block;html=1;rounded=0;strokeWidth=5;endFill=1;strokeColor=#FF8000;" edge="1" parent="1">
          <mxGeometry width="50" height="50" relative="1" as="geometry">
            <mxPoint x="640" y="1217.1799999999998" as="sourcePoint" />
            <mxPoint x="1040" y="1217.1799999999998" as="targetPoint" />
          </mxGeometry>
        </mxCell>
        <mxCell id="dh6VsPdFNRWcTSXPeY6v-50" value="update database if necessary" style="text;html=1;align=center;verticalAlign=middle;resizable=0;points=[];autosize=1;strokeColor=none;fillColor=none;fontSize=24;fontStyle=1;fontColor=#00CC00;" vertex="1" parent="1">
          <mxGeometry x="670" y="1163.1799999999998" width="360" height="40" as="geometry" />
        </mxCell>
        <mxCell id="dh6VsPdFNRWcTSXPeY6v-51" value="" style="endArrow=block;html=1;rounded=0;strokeWidth=5;endFill=1;strokeColor=#FF8000;" edge="1" parent="1">
          <mxGeometry width="50" height="50" relative="1" as="geometry">
            <mxPoint x="580" y="1309" as="sourcePoint" />
            <mxPoint x="180" y="1309" as="targetPoint" />
          </mxGeometry>
        </mxCell>
        <mxCell id="dh6VsPdFNRWcTSXPeY6v-52" value="respond back to user" style="text;html=1;align=center;verticalAlign=middle;resizable=0;points=[];autosize=1;strokeColor=none;fillColor=none;fontSize=24;fontStyle=1;fontColor=#00CC00;" vertex="1" parent="1">
          <mxGeometry x="244" y="1260" width="270" height="40" as="geometry" />
        </mxCell>
        <mxCell id="dh6VsPdFNRWcTSXPeY6v-53" value="" style="verticalLabelPosition=bottom;html=1;verticalAlign=top;strokeWidth=5;shape=mxgraph.lean_mapping.physical_pull;pointerEvents=1;flipH=1;rotation=-30;strokeColor=#FF8000;" vertex="1" parent="1">
          <mxGeometry x="650" y="750" width="100" height="100" as="geometry" />
        </mxCell>
        <mxCell id="dh6VsPdFNRWcTSXPeY6v-54" value="validate input&lt;br style=&quot;font-size: 24px;&quot;&gt;before proceeding &lt;br style=&quot;font-size: 24px;&quot;&gt;to execute a business case" style="text;html=1;align=center;verticalAlign=middle;resizable=0;points=[];autosize=1;strokeColor=none;fillColor=none;fontSize=24;fontStyle=1;fontColor=#00CC00;" vertex="1" parent="1">
          <mxGeometry x="743" y="755" width="330" height="100" as="geometry" />
        </mxCell>
        <mxCell id="dh6VsPdFNRWcTSXPeY6v-33" value="" style="group" vertex="1" connectable="0" parent="1">
          <mxGeometry x="449" y="52" width="350" height="350" as="geometry" />
        </mxCell>
        <mxCell id="dh6VsPdFNRWcTSXPeY6v-5" value="" style="triangle;direction=north;strokeWidth=4;html=1;fillColor=#808080;strokeColor=#ffffff;shadow=0;fontSize=10;fontColor=#FFFFFF;align=center;fontStyle=0;whiteSpace=wrap;spacing=10;" vertex="1" parent="dh6VsPdFNRWcTSXPeY6v-33">
          <mxGeometry width="350" height="350" as="geometry" />
        </mxCell>
        <mxCell id="dh6VsPdFNRWcTSXPeY6v-6" value="" style="triangle;direction=north;strokeWidth=4;html=1;fillColor=#00CC00;strokeColor=#ffffff;shadow=0;fontSize=10;fontColor=#FFFFFF;align=center;fontStyle=0;whiteSpace=wrap;spacing=10;" vertex="1" parent="dh6VsPdFNRWcTSXPeY6v-33">
          <mxGeometry x="50" width="250" height="250" as="geometry" />
        </mxCell>
        <mxCell id="dh6VsPdFNRWcTSXPeY6v-7" value="" style="triangle;direction=north;strokeWidth=4;html=1;fillColor=#808080;strokeColor=#ffffff;shadow=0;fontSize=10;fontColor=#FFFFFF;align=center;fontStyle=0;whiteSpace=wrap;spacing=10;" vertex="1" parent="dh6VsPdFNRWcTSXPeY6v-33">
          <mxGeometry x="100" width="150" height="150" as="geometry" />
        </mxCell>
        <mxCell id="dh6VsPdFNRWcTSXPeY6v-9" value="Application" style="text;html=1;align=center;verticalAlign=middle;resizable=0;points=[];autosize=1;strokeColor=none;fillColor=none;fontColor=#FFFFFF;fontStyle=1;fontSize=15;" vertex="1" parent="dh6VsPdFNRWcTSXPeY6v-33">
          <mxGeometry x="120" y="110" width="110" height="30" as="geometry" />
        </mxCell>
        <mxCell id="dh6VsPdFNRWcTSXPeY6v-10" value="Infrastructure" style="text;html=1;align=center;verticalAlign=middle;resizable=0;points=[];autosize=1;strokeColor=none;fillColor=none;fontColor=#FFFFFF;fontStyle=1;fontSize=15;" vertex="1" parent="dh6VsPdFNRWcTSXPeY6v-33">
          <mxGeometry x="115" y="200" width="120" height="30" as="geometry" />
        </mxCell>
        <mxCell id="dh6VsPdFNRWcTSXPeY6v-11" value="Domain" style="text;html=1;align=center;verticalAlign=middle;resizable=0;points=[];autosize=1;strokeColor=none;fillColor=none;fontColor=#FFFFFF;fontStyle=1;fontSize=15;" vertex="1" parent="dh6VsPdFNRWcTSXPeY6v-33">
          <mxGeometry x="140" y="290" width="80" height="30" as="geometry" />
        </mxCell>
        <mxCell id="dh6VsPdFNRWcTSXPeY6v-32" value="" style="group" vertex="1" connectable="0" parent="1">
          <mxGeometry x="1364" y="50" width="350" height="350" as="geometry" />
        </mxCell>
        <mxCell id="dh6VsPdFNRWcTSXPeY6v-14" value="" style="triangle;direction=north;strokeWidth=4;html=1;fillColor=#00CC00;strokeColor=#ffffff;shadow=0;fontSize=10;fontColor=#FFFFFF;align=center;fontStyle=0;whiteSpace=wrap;spacing=10;" vertex="1" parent="dh6VsPdFNRWcTSXPeY6v-32">
          <mxGeometry width="350" height="350" as="geometry" />
        </mxCell>
        <mxCell id="dh6VsPdFNRWcTSXPeY6v-15" value="" style="triangle;direction=north;strokeWidth=4;html=1;fillColor=#808080;strokeColor=#ffffff;shadow=0;fontSize=10;fontColor=#FFFFFF;align=center;fontStyle=0;whiteSpace=wrap;spacing=10;" vertex="1" parent="dh6VsPdFNRWcTSXPeY6v-32">
          <mxGeometry x="50" width="250" height="250" as="geometry" />
        </mxCell>
        <mxCell id="dh6VsPdFNRWcTSXPeY6v-16" value="" style="triangle;direction=north;strokeWidth=4;html=1;fillColor=#808080;strokeColor=#ffffff;shadow=0;fontSize=10;fontColor=#FFFFFF;align=center;fontStyle=0;whiteSpace=wrap;spacing=10;" vertex="1" parent="dh6VsPdFNRWcTSXPeY6v-32">
          <mxGeometry x="100" width="150" height="150" as="geometry" />
        </mxCell>
        <mxCell id="dh6VsPdFNRWcTSXPeY6v-17" value="Application" style="text;html=1;align=center;verticalAlign=middle;resizable=0;points=[];autosize=1;strokeColor=none;fillColor=none;fontColor=#FFFFFF;fontStyle=1;fontSize=15;" vertex="1" parent="dh6VsPdFNRWcTSXPeY6v-32">
          <mxGeometry x="120" y="110" width="110" height="30" as="geometry" />
        </mxCell>
        <mxCell id="dh6VsPdFNRWcTSXPeY6v-18" value="Infrastructure" style="text;html=1;align=center;verticalAlign=middle;resizable=0;points=[];autosize=1;strokeColor=none;fillColor=none;fontColor=#FFFFFF;fontStyle=1;fontSize=15;" vertex="1" parent="dh6VsPdFNRWcTSXPeY6v-32">
          <mxGeometry x="115" y="200" width="120" height="30" as="geometry" />
        </mxCell>
        <mxCell id="dh6VsPdFNRWcTSXPeY6v-19" value="Domain" style="text;html=1;align=center;verticalAlign=middle;resizable=0;points=[];autosize=1;strokeColor=none;fillColor=none;fontColor=#FFFFFF;fontStyle=1;fontSize=15;" vertex="1" parent="dh6VsPdFNRWcTSXPeY6v-32">
          <mxGeometry x="140" y="290" width="80" height="30" as="geometry" />
        </mxCell>
        <mxCell id="dh6VsPdFNRWcTSXPeY6v-34" value="" style="shape=datastore;whiteSpace=wrap;html=1;fillColor=#1ba1e2;strokeColor=#6600CC;strokeWidth=3;fontColor=#ffffff;" vertex="1" parent="1">
          <mxGeometry x="1020" y="207" width="120" height="190" as="geometry" />
        </mxCell>
        <mxCell id="dh6VsPdFNRWcTSXPeY6v-3" value="" style="sketch=0;outlineConnect=0;fontColor=#232F3E;gradientColor=none;fillColor=#FF8000;strokeColor=none;dashed=0;verticalLabelPosition=bottom;verticalAlign=top;align=center;html=1;fontSize=12;fontStyle=0;aspect=fixed;pointerEvents=1;shape=mxgraph.aws4.user;" vertex="1" parent="1">
          <mxGeometry x="60" y="237" width="160" height="160" as="geometry" />
        </mxCell>
      </root>
    </mxGraphModel>
  </diagram>
</mxfile>
